<?xml version="1.0" standalone="no"?><!DOCTYPE svg PUBLIC "-//W3C//DTD SVG 1.1//EN" "http://www.w3.org/Graphics/SVG/1.1/DTD/svg11.dtd"><svg t="1636004541555" class="icon" viewBox="0 0 1024 1024" version="1.1" xmlns="http://www.w3.org/2000/svg" p-id="851" xmlns:xlink="http://www.w3.org/1999/xlink" width="200" height="200"><defs><style type="text/css"></style></defs><path d="M446.577778 688.355556l71.111111 65.422222 59.733333-65.422222L514.844444 312.888889l-68.266666 375.466667z m0 0" p-id="852"></path><path d="M512 145.066667c-173.511111 0-329.955556 102.4-401.066667 261.688889S71.111111 750.933333 187.733333 878.933333l62.577778-39.822222c-62.577778-62.577778-99.555556-145.066667-102.4-233.244444h56.888889V568.888889h-56.888889c8.533333-190.577778 159.288889-341.333333 347.022222-349.866667v51.2h36.977778V219.022222c184.888889 8.533333 335.644444 159.288889 344.177778 349.866667h-56.888889v36.977778h56.888889c-5.688889 88.177778-39.822222 170.666667-102.4 233.244444l59.733333 42.666667c116.622222-128 147.911111-312.888889 76.8-472.177778-68.266667-162.133333-224.711111-264.533333-398.222222-264.533333z m0 0" p-id="853"></path></svg>